<svg width="82" height="108" viewBox="0 0 82 108" fill="none" xmlns="http://www.w3.org/2000/svg">
<g clip-path="url(#clip0_2089_181157)">
<path d="M4.18714 13.2642C3.46089 15.1367 3.01463 17.1318 2.90088 19.1793C2.37588 28.8481 9.90093 39.1382 19.7623 40.3544C29.6936 41.5794 33.6311 32.3831 35.2061 24.1668C36.2911 18.5055 42.1799 35.6119 52.2862 39.5232C59.4175 42.2794 69.5939 40.5557 74.5727 33.8531C82.2377 23.5455 74.8439 5.97542 67.6514 4.45291C61.1501 3.07915 58.3063 15.5392 48.2087 16.3267C36.4661 17.2543 32.1786 1.02288 19.2985 1.77539C12.2809 2.18664 6.63716 7.00793 4.18714 13.2642Z" fill="#ED5C36"/>
<path d="M4.18714 13.2642C3.46089 15.1367 3.01463 17.1318 2.90088 19.1793C2.37588 28.8481 9.90093 39.1382 19.7623 40.3544C29.6936 41.5794 33.6311 32.3831 35.2061 24.1668C36.2911 18.5055 42.1799 35.6119 52.2862 39.5232C59.4175 42.2794 69.5939 40.5557 74.5727 33.8531C82.2377 23.5455 74.8439 5.97542 67.6514 4.45291C61.1501 3.07915 58.3063 15.5392 48.2087 16.3267C36.4661 17.2543 32.1786 1.02288 19.2985 1.77539C12.2809 2.18664 6.63716 7.00793 4.18714 13.2642Z" fill="#ED5C36"/>
</g>
<path d="M15.3111 97.3689C12.6362 97.3689 10.2535 96.8309 8.16282 95.7548C6.07216 94.648 4.42729 93.1261 3.22824 91.1892C2.05992 89.2522 1.47576 87.054 1.47576 84.5944C1.47576 82.104 2.05992 79.9057 3.22824 77.9995C4.42729 76.0626 6.07216 74.5561 8.16282 73.48C10.2535 72.3732 12.6362 71.8198 15.3111 71.8198C17.9244 71.8198 20.1995 72.3732 22.1365 73.48C24.0734 74.5561 25.5031 76.1087 26.4254 78.1379L20.8452 81.1355C20.1995 79.9672 19.3848 79.1064 18.4009 78.5529C17.4478 77.9995 16.4025 77.7228 15.2649 77.7228C14.0351 77.7228 12.9283 77.9995 11.9445 78.5529C10.9606 79.1064 10.1766 79.8904 9.59247 80.9049C9.03906 81.9195 8.76235 83.1493 8.76235 84.5944C8.76235 86.0394 9.03906 87.2692 9.59247 88.2838C10.1766 89.2984 10.9606 90.0824 11.9445 90.6358C12.9283 91.1892 14.0351 91.4659 15.2649 91.4659C16.4025 91.4659 17.4478 91.2045 18.4009 90.6819C19.3848 90.1285 20.1995 89.2522 20.8452 88.0532L26.4254 91.0969C25.5031 93.0954 24.0734 94.648 22.1365 95.7548C20.1995 96.8309 17.9244 97.3689 15.3111 97.3689ZM28.7855 97V72.1887H35.9799V97H28.7855ZM32.3827 68.7299C31.0607 68.7299 29.9846 68.3456 29.1545 67.5769C28.3244 66.8083 27.9093 65.8552 27.9093 64.7176C27.9093 63.5801 28.3244 62.627 29.1545 61.8584C29.9846 61.0897 31.0607 60.7054 32.3827 60.7054C33.7048 60.7054 34.7808 61.0743 35.611 61.8122C36.4411 62.5194 36.8561 63.4417 36.8561 64.5793C36.8561 65.7784 36.4411 66.7776 35.611 67.5769C34.8116 68.3456 33.7355 68.7299 32.3827 68.7299ZM55.6752 97.3689C53.4923 97.3689 51.6169 96.9078 50.0489 95.9854C48.4809 95.0631 47.2818 93.6642 46.4517 91.7887C45.6216 89.8825 45.2065 87.4844 45.2065 84.5944C45.2065 81.6736 45.6369 79.2754 46.4978 77.4C47.3894 75.5245 48.6192 74.1256 50.1872 73.2033C51.7552 72.2809 53.5846 71.8198 55.6752 71.8198C58.0119 71.8198 60.1025 72.3424 61.9472 73.3878C63.8227 74.4331 65.2984 75.9089 66.3745 77.8151C67.4813 79.7213 68.0348 81.981 68.0348 84.5944C68.0348 87.1769 67.4813 89.4213 66.3745 91.3275C65.2984 93.2337 63.8227 94.7249 61.9472 95.8009C60.1025 96.8463 58.0119 97.3689 55.6752 97.3689ZM41.0098 97V62.7807H48.2042V77.2155L47.743 84.5482L47.8813 91.9271V97H41.0098ZM54.43 91.4659C55.6291 91.4659 56.6898 91.1892 57.6122 90.6358C58.5653 90.0824 59.3185 89.2984 59.8719 88.2838C60.4561 87.2384 60.7482 86.0086 60.7482 84.5944C60.7482 83.1493 60.4561 81.9195 59.8719 80.9049C59.3185 79.8904 58.5653 79.1064 57.6122 78.5529C56.6898 77.9995 55.6291 77.7228 54.43 77.7228C53.231 77.7228 52.1549 77.9995 51.2018 78.5529C50.2487 79.1064 49.4955 79.8904 48.942 80.9049C48.3886 81.9195 48.1119 83.1493 48.1119 84.5944C48.1119 86.0086 48.3886 87.2384 48.942 88.2838C49.4955 89.2984 50.2487 90.0824 51.2018 90.6358C52.1549 91.1892 53.231 91.4659 54.43 91.4659ZM71.2037 97V72.1887H78.3981V97H71.2037ZM74.8009 68.7299C73.4789 68.7299 72.4028 68.3456 71.5727 67.5769C70.7426 66.8083 70.3275 65.8552 70.3275 64.7176C70.3275 63.5801 70.7426 62.627 71.5727 61.8584C72.4028 61.0897 73.4789 60.7054 74.8009 60.7054C76.123 60.7054 77.199 61.0743 78.0292 61.8122C78.8593 62.5194 79.2743 63.4417 79.2743 64.5793C79.2743 65.7784 78.8593 66.7776 78.0292 67.5769C77.2298 68.3456 76.1537 68.7299 74.8009 68.7299Z" fill="#ED5C36"/>
<defs>
<clipPath id="clip0_2089_181157">
<rect width="74.9531" height="39.034" fill="white" transform="translate(2.875 1.74951)"/>
</clipPath>
</defs>
</svg>
